<svg width="1129" height="663" xmlns="http://www.w3.org/2000/svg">
 <title>fashion blogging</title>

 <g>
  <title>background</title>
  <rect fill="none" id="canvas_background" height="602" width="802" y="-1" x="-1"/>
 </g>
 <g>
  <title>Layer 1</title>
  <ellipse id="svg_2" fill="#3f3d56" ry="27.50002" rx="514" cy="635.49998" cx="559"/>
  <ellipse id="svg_3" opacity="0.2" ry="22" rx="460" cy="627" cx="558"/>
  <circle id="svg_12" fill="#3c354c" r="42.0619" cy="264.47932" cx="319.14378"/>
  <circle id="svg_13" fill="#3c354c" r="42.0619" cy="303.73709" cx="316.33965"/>
  <path id="svg_14" fill="#ffc1c7" d="m298.11283,274.29376s-1.86942,26.17185 -10.2818,29.91069s26.17185,60.75607 26.17185,60.75607l14.02064,-17.75946l-11.21652,-31.78006s8.41238,-26.17184 12.15121,-28.04126s-30.84538,-13.08598 -30.84538,-13.08598z"/>
  <path id="svg_15" opacity="0.1" d="m298.11283,274.29376s-1.86942,26.17185 -10.2818,29.91069s26.17185,60.75607 26.17185,60.75607l14.02064,-17.75946l-11.21652,-31.78006s8.41238,-26.17184 12.15121,-28.04126s-30.84538,-13.08598 -30.84538,-13.08598z"/>
  <path id="svg_16" fill="#ffc1c7" d="m413.082,407.95713s41.12719,21.49831 32.71481,45.80074s-26.17181,-27.10656 -26.17181,-27.10656l-14.02063,-10.2818l7.47763,-8.41238z"/>
  <path id="svg_17" fill="#ffc1c7" d="m413.082,471.51733s15.89,34.58423 2.80413,36.45365s-14.02063,-30.84539 -14.02063,-30.84539l11.2165,-5.60826z"/>
  <path id="svg_18" fill="#080e51" d="m344.84827,372.43819c0.93471,0 8.41238,2.80413 8.41238,2.80413s28.04127,51.409 39.25778,61.69079s27.10657,35.51889 24.30243,37.38835s-23.36772,14.95534 -25.23714,11.21654s-9.34709,-17.75947 -14.02064,-20.5636s-28.04126,-33.64952 -34.58422,-36.45364s-21.49831,-47.67016 -21.49831,-47.67016l23.36772,-8.41241z"/>
  <path stroke="null" fill="#080e51" id="svg_19" opacity="0.1" d="m344.84827,370.43819c0.93471,0 8.41238,2.80413 8.41238,2.80413s28.04127,51.409 39.25778,61.69079s27.10657,35.51889 24.30243,37.38835s-23.36772,14.95534 -25.23714,11.21654s-9.34709,-17.75947 -14.02064,-20.5636s-28.04126,-33.64952 -34.58422,-36.45364s-21.49831,-47.67016 -21.49831,-47.67016l23.36772,-8.41241z"/>
  <circle id="svg_20" fill="#ffc1c7" r="27.57391" cy="272.42435" cx="315.8723"/>
  <path id="svg_21" fill="#0c1782" d="m353.26065,375.24232s-14.95534,17.75947 -16.82476,18.69418c-0.701,0.35519 -5.37457,2.42086 -10.92669,4.86979c-9.207,4.05667 -20.85341,9.15084 -20.85341,9.15084s-7.47767,4.67355 -11.2165,4.67355s-24.30243,10.28179 -24.30243,10.28179s-14.95535,11.21653 -24.30243,11.21653s-0.93471,5.60825 -13.08593,4.67354s-1.86942,-35.51893 3.73884,-40.19248s6.543,-23.36772 5.60825,-28.976s4.67354,-26.17185 12.15122,-52.3437s23.36772,-15.89 23.36772,-15.89s9.34709,-5.60825 10.28179,-5.60825s10.2818,15.89 12.15122,25.23714c1.159,5.7952 8.78629,17.694 14.41314,25.90074c3.44913,5.0381 6.15046,8.68348 6.15046,8.68348s0,-1.7479 -0.04679,-4.15946c-0.07473,-4.16882 -0.299,-10.29115 -0.88792,-12.66529c-0.93471,-3.73884 -1.86942,-23.36773 -1.86942,-23.36773s0,-0.93471 2.80413,-0.93471s25.23713,34.58423 25.23713,34.58423l1.86942,18.69418l3.19663,3.65469l3.34633,3.82294z"/>
  <path id="svg_22" opacity="0.1" d="m353.26065,375.24232s-14.95534,17.75947 -16.82476,18.69418c-0.701,0.35519 -5.37457,2.42086 -10.92669,4.86979c-26.93837,-6.83271 -57.77441,-22.16191 -57.77441,-22.16191s-8.87973,-31.31274 -1.40206,-45.33338s28.976,1.86942 28.976,1.86942s8.18806,6.32794 18.152,13.74953c1.98169,1.47686 4.02865,3.00044 6.10367,4.524c10.84272,7.973 22.21805,16.00221 26.87288,18.1801c0.85062,0.39256 2.02836,1.00014 3.47709,1.78527l3.34628,3.823z"/>
  <path id="svg_23" fill="#0c1782" d="m259.78977,375.24232s69.16845,21.4983 86.92792,23.36772s49.53957,37.38836 52.3437,36.45365s22.433,-24.30243 17.75947,-28.04127s-60.3822,-37.38835 -70.38358,-42.0619s-51.12858,-36.45364 -51.12858,-36.45364s-21.4983,-15.89005 -28.976,-1.86942s-6.54293,48.60486 -6.54293,48.60486z"/>
  <path id="svg_24" fill="#0c1782" d="m295.3087,479.92971s-11.2165,-8.41238 -18.69417,-6.543s-16.82476,7.47767 -15.89,19.62889a200.1052,200.1052 0 0 0 2.80412,21.4983l0.93471,0l2.80413,-16.82476s8.41238,3.73884 10.2818,10.2818s25.23714,19.62889 30.84539,14.95534s-5.60825,-10.2818 -5.60825,-10.2818l-7.47773,-32.71477z"/>
  <path id="svg_26" fill="#3c354c" d="m315.8723,487.40738s80.385,-9.34708 76.64613,-24.30243s-31.7801,-31.7801 -31.7801,-31.7801l-46.73545,9.34709l-30.61828,33.13556l11.9241,6.12221l20.5636,7.47767z"/>
  <path id="svg_27" opacity="0.1" d="m315.8723,487.40738s80.385,-9.34708 76.64613,-24.30243s-31.7801,-31.7801 -31.7801,-31.7801l-46.73545,9.34709l-30.61828,33.13556l11.9241,6.12221l20.5636,7.47767z"/>
  <path id="svg_28" fill="#0c1782" d="m279.41865,500.49331s-15.89005,27.10656 -20.56359,28.04126s-10.2818,6.543 -3.73884,18.69418a66.38264,66.38264 0 0 1 7.47767,23.36772l1.86942,0l-0.93471,-16.82476s12.15122,19.62889 13.08593,27.10656s35.51893,14.95534 41.12719,4.67355s-7.47767,-17.75947 -7.47767,-17.75947s-19.62889,-21.49835 -16.82476,-36.45365s5.60825,-18.69418 5.60825,-18.69418l-19.62889,-12.15121z"/>
  <path id="svg_29" fill="#3c354c" d="m228.00967,432.19427s-8.41238,53.27841 22.433,51.409s95.3403,-40.19248 95.3403,-40.19248l19.62889,-21.49831s14.02063,-19.62888 -9.34709,-25.23714s-61.69077,14.02066 -61.69077,14.02066l-57.952,25.23714l-8.41233,-3.73887z"/>
  <path id="svg_30" fill="#3c354c" d="m361.673,418.23893l3.73884,4.67354s-57.01724,92.53618 -62.62549,93.47089s-25.23714,-13.08592 -25.23714,-15.89005s7.47767,-18.69418 9.34708,-20.5636s20.5636,-44.866 24.30244,-47.67015s50.47427,-14.02063 50.47427,-14.02063z"/>
  <ellipse id="svg_31" fill="#3c354c" ry="21.03095" rx="30.84539" cy="250.92604" cx="317.27436"/>
 </g>
</svg>